<?xml version="1.0" encoding="UTF-8"?>
<!DOCTYPE svg PUBLIC "-//W3C//DTD SVG 1.1//EN" "http://www.w3.org/Graphics/SVG/1.1/DTD/svg11.dtd">
<svg version="1.1" xmlns="http://www.w3.org/2000/svg" xmlns:xlink="http://www.w3.org/1999/xlink" width="50" height="50"  xml:space="preserve" id="_OLSKSharedFeatureExtension">
    <!-- Generated by PaintCode (www.paintcodeapp.com) -->
    <path id="_OLSKSharedFeatureExtension-rectangle3" stroke="rgb(0, 0, 0)" stroke-width="1.25" stroke-miterlimit="10" fill="none" d="M 14.55,14 L 20.33,14 C 20.33,14 20.33,9 24.5,9 28.67,9 28.67,14 28.67,14 L 34.45,14 C 35.19,14 35.55,14 35.88,14.11 L 35.95,14.12 C 36.38,14.28 36.72,14.62 36.88,15.05 37,15.45 37,15.81 37,16.55 L 37,22.33 C 37,22.33 42,22.33 42,26.5 42,30.67 37,30.67 37,30.67 L 37,36.45 C 37,37.19 37,37.55 36.89,37.88 L 36.88,37.95 C 36.72,38.38 36.38,38.72 35.95,38.88 35.55,39 35.19,39 34.45,39 L 28.67,39 C 28.67,39 28.67,34 24.5,34 20.33,34 20.33,39 20.33,39 L 14.55,39 C 13.81,39 13.45,39 13.12,38.89 L 13.05,38.88 C 12.62,38.72 12.28,38.38 12.12,37.95 12,37.55 12,37.19 12,36.45 L 12,30.67 C 12,30.67 17,30.67 17,26.5 17,22.33 12,22.33 12,22.33 L 12,16.55 C 12,15.81 12,15.45 12.11,15.12 L 12.12,15.05 C 12.28,14.62 12.62,14.28 13.05,14.12 13.45,14 13.81,14 14.55,14 Z M 14.55,14" />
</svg>
