<?xml version="1.0" encoding="UTF-8"?>
<!DOCTYPE svg PUBLIC "-//W3C//DTD SVG 1.1//EN" "http://www.w3.org/Graphics/SVG/1.1/DTD/svg11.dtd">
<svg version="1.1" xmlns="http://www.w3.org/2000/svg" xmlns:xlink="http://www.w3.org/1999/xlink" width="16" height="16"  xml:space="preserve" id="_OLSKSharedEdit">
    <!-- Generated by PaintCode (www.paintcodeapp.com) -->
    <g id="_OLSKSharedEdit-group">
        <path id="_OLSKSharedEdit-rectangle" stroke="rgb(0, 0, 0)" stroke-width="1.5" stroke-linecap="round" stroke-miterlimit="10" fill="none" d="M 13.12,10.17 L 13.12,12.43 C 13.12,13.05 13.12,13.37 13.03,13.65 L 13.01,13.7 C 12.88,14.07 12.58,14.36 12.2,14.49 11.86,14.6 11.54,14.6 10.9,14.6 L 3.72,14.6 C 3.08,14.6 2.76,14.6 2.47,14.5 L 2.42,14.49 C 2.04,14.36 1.75,14.07 1.61,13.7 1.5,13.37 1.5,13.05 1.5,12.43 L 1.5,5.42 C 1.5,4.79 1.5,4.48 1.6,4.2 L 1.61,4.14 C 1.75,3.78 2.04,3.49 2.42,3.35 2.76,3.25 3.08,3.25 3.72,3.25 L 8.01,3.25" />
        <path id="_OLSKSharedEdit-bezier" stroke="rgb(0, 0, 0)" stroke-width="1.5" stroke-miterlimit="10" fill="none" d="M 1.09,-8.67 C 1.13,-8.55 1.13,-8.43 1.13,-8.21 L 1.58,0.46 C 1.58,0.53 1.58,0.61 1.58,0.73 1.58,1.5 0.89,2.54 0.21,2.54 -0.48,2.54 -1.16,1.5 -1.16,0.73 -1.16,0.63 -1.16,0.46 -1.16,0.46 L -1.61,-8.21 C -1.61,-8.43 -1.61,-8.55 -1.58,-8.65 -1.52,-8.81 -1.41,-8.91 -1.27,-8.96 -1.14,-9 0.29,-9 0.29,-9 0.53,-9 0.65,-9 0.76,-8.97 0.76,-8.97 1.04,-8.81 1.09,-8.67 Z M 1.09,-8.67" transform="translate(7.76, 8.79) rotate(45)"  />
    </g>
</svg>
