<?xml version="1.0" encoding="UTF-8"?>
<!DOCTYPE svg PUBLIC "-//W3C//DTD SVG 1.1//EN" "http://www.w3.org/Graphics/SVG/1.1/DTD/svg11.dtd">
<svg version="1.1" xmlns="http://www.w3.org/2000/svg" xmlns:xlink="http://www.w3.org/1999/xlink" width="50" height="50"  xml:space="preserve" id="_OLSKSharedFeatureCollaborate">
    <!-- Generated by PaintCode (www.paintcodeapp.com) -->
    <g id="_OLSKSharedFeatureCollaborate-group9">
        <path id="_OLSKSharedFeatureCollaborate-bezier" stroke="rgb(0, 0, 0)" stroke-width="1.25" stroke-miterlimit="10" fill="none" d="M 30.38,33 L 20.06,33 C 19.18,33 18.74,33 18.34,32.87 17.75,32.66 17.34,32.25 17.15,31.74 17,31.26 17,30.82 17,29.94 L 17,13.06 C 17,12.18 17,11.74 17.13,11.34 17.34,10.75 17.75,10.34 18.26,10.15 18.73,10 19.17,10 20.05,10 L 36.94,10 C 37.82,10 38.26,10 38.66,10.13 L 38.62,10.12 C 39.25,10.34 39.66,10.75 39.85,11.26 40,11.74 40,12.18 40,13.06 L 40,29.94 C 40,30.82 40,31.26 39.87,31.66 39.66,32.25 39.25,32.66 38.74,32.85 38.26,33 37.82,33 36.94,33 L 35.62,33" />
        <path id="_OLSKSharedFeatureCollaborate-bezier2" stroke="rgb(0, 0, 0)" stroke-width="1.25" stroke-miterlimit="10" fill="none" d="M 19.62,18 L 29.94,18 C 30.82,18 31.26,18 31.66,18.13 L 31.62,18.12 C 32.25,18.34 32.66,18.75 32.85,19.26 33,19.74 33,20.18 33,21.06 L 33,36.94 C 33,37.82 33,38.26 32.87,38.66 32.66,39.25 32.25,39.66 31.74,39.85 31.26,40 30.82,40 29.94,40 L 13.06,40 C 12.18,40 11.74,40 11.34,39.87 10.75,39.66 10.34,39.25 10.15,38.74 10,38.26 10,37.82 10,36.94 L 10,21.06 C 10,20.18 10,19.74 10.13,19.34 10.34,18.75 10.75,18.34 11.26,18.15 11.74,18 12.18,18 13.06,18 L 14.38,18" />
    </g>
</svg>
