<?xml version="1.0" encoding="UTF-8"?>
<!DOCTYPE svg PUBLIC "-//W3C//DTD SVG 1.1//EN" "http://www.w3.org/Graphics/SVG/1.1/DTD/svg11.dtd">
<svg version="1.1" xmlns="http://www.w3.org/2000/svg" xmlns:xlink="http://www.w3.org/1999/xlink" width="16" height="16"  xml:space="preserve" id="_OLSKSharedCloudOffline">
    <!-- Generated by PaintCode (www.paintcodeapp.com) -->
    <path id="_OLSKSharedCloudOffline-bezier2" stroke="rgb(0, 0, 0)" stroke-width="1.3" stroke-linecap="round" stroke-miterlimit="10" fill="none" d="M 11.81,12 L 12.49,12 C 13.88,12 15,10.88 15,9.48 15,8.25 14.13,7.23 12.98,7 L 12.97,7 C 12.79,6.96 12.66,6.79 12.68,6.61 12.86,4.83 11.46,3 9.44,3 8.04,3 7.01,3.81 6.52,4.78 L 6.53,4.78 C 6.44,4.96 6.22,5.03 6.05,4.94 5.44,4.64 4.72,4.67 4.15,5.01 3.58,5.36 3.15,5.99 3.15,6.96 L 3.15,6.96 C 3.15,7.13 3.03,7.28 2.86,7.31 1.78,7.5 1,8.58 1,9.66 1,10.96 2.02,12 3.69,12 L 4.86,12" />
    <g id="_OLSKSharedCloudOffline-group" transform="translate(8.3, 12.11) rotate(90)" >
        <path id="_OLSKSharedCloudOffline-bezier3" stroke="rgb(0, 0, 0)" stroke-width="1.5" stroke-linecap="round" stroke-miterlimit="10" fill="none" d="M 1.68,-1.68 L -1.68,1.68" />
        <path id="_OLSKSharedCloudOffline-bezier" stroke="rgb(0, 0, 0)" stroke-width="1.5" stroke-linecap="round" stroke-miterlimit="10" fill="none" d="M 3.35,-0 L 0,3.35" transform="translate(-1.68, 1.68) rotate(-90)"  />
    </g>
</svg>
