<?xml version="1.0" encoding="UTF-8"?>
<!DOCTYPE svg PUBLIC "-//W3C//DTD SVG 1.1//EN" "http://www.w3.org/Graphics/SVG/1.1/DTD/svg11.dtd">
<svg version="1.1" xmlns="http://www.w3.org/2000/svg" xmlns:xlink="http://www.w3.org/1999/xlink" width="16" height="16"  xml:space="preserve" id="_OLSKSharedLanguage">
    <!-- Generated by PaintCode (www.paintcodeapp.com) -->
    <circle id="_OLSKSharedLanguage-oval" stroke="rgb(0, 0, 0)" fill="none" cx="8" cy="8" r="6" />
    <path id="_OLSKSharedLanguage-bezier2" stroke="rgb(0, 0, 0)" stroke-miterlimit="10" fill="none" d="M 2,8 L 14,8" />
    <path id="_OLSKSharedLanguage-bezier3" stroke="rgb(0, 0, 0)" stroke-miterlimit="10" fill="none" d="M 8,14 L 8,2" />
    <path id="_OLSKSharedLanguage-bezier4" stroke="rgb(0, 0, 0)" stroke-linejoin="bevel" stroke-miterlimit="10" fill="none" d="M 12.24,3.75 C 11.15,4.83 9.65,5.5 8,5.5 6.35,5.5 4.85,4.83 3.76,3.75 4.09,3.42 4.46,3.13 4.86,2.89 5.77,2.32 6.85,2 8,2 9.65,2 11.15,2.67 12.24,3.75 Z M 12.24,3.75" />
    <path id="_OLSKSharedLanguage-bezier5" stroke="rgb(0, 0, 0)" stroke-linejoin="bevel" stroke-miterlimit="10" fill="none" d="M 12.24,12.25 C 11.15,13.33 9.65,14 8,14 6.35,14 4.85,13.33 3.76,12.25 4.09,11.92 4.46,11.63 4.86,11.39 5.77,10.82 6.85,10.5 8,10.5 9.65,10.5 11.15,11.17 12.24,12.25 Z M 12.24,12.25" />
    <ellipse id="_OLSKSharedLanguage-oval4" stroke="rgb(0, 0, 0)" fill="none" cx="8" cy="8" rx="3" ry="5.75" />
</svg>
