<?xml version="1.0" encoding="UTF-8"?>
<!DOCTYPE svg PUBLIC "-//W3C//DTD SVG 1.1//EN" "http://www.w3.org/Graphics/SVG/1.1/DTD/svg11.dtd">
<svg version="1.1" xmlns="http://www.w3.org/2000/svg" xmlns:xlink="http://www.w3.org/1999/xlink" width="50" height="50"  xml:space="preserve" id="_OLSKSharedFeatureTags">
    <!-- Generated by PaintCode (www.paintcodeapp.com) -->
    <g id="_OLSKSharedFeatureTags-group" transform="translate(-3.5, 37.64) rotate(-75)" >
        <path id="_OLSKSharedFeatureTags-bezier2" stroke="rgb(0, 0, 0)" stroke-width="1.25" stroke-miterlimit="10" fill="rgb(255, 255, 255)" d="M 24.84,19.2 C 24.73,19.2 24.62,19.21 24.51,19.22 23.39,19.39 22.53,20.35 22.53,21.52 22.53,22.81 23.57,23.85 24.84,23.85 26.12,23.85 27.15,22.81 27.15,21.52 27.15,20.24 26.12,19.2 24.84,19.2 Z M 31.77,18.82 C 32.03,20 32,20.24 32,21.6 L 32,34.26 C 32,35.63 32,36.31 31.8,36.92 L 31.77,37.04 C 31.48,37.84 30.85,38.48 30.05,38.77 29.33,39 28.65,39 27.29,39 L 22.85,39 C 21.5,39 20.82,39 20.21,38.8 L 20.09,38.77 C 19.29,38.48 18.67,37.84 18.38,37.04 18.14,36.31 18.14,35.63 18.14,34.26 L 18.14,21.6 C 18.14,20.24 18.14,19.55 18.35,18.94 18.55,18.32 22.6,12.14 25.07,12.22 27.53,12.31 31.51,17.64 31.77,18.82 Z M 31.77,18.82" />
    </g>
    <g id="_OLSKSharedFeatureTags-group2" transform="translate(-11, 31.64) rotate(-60)" >
        <path id="_OLSKSharedFeatureTags-bezier" stroke="rgb(0, 0, 0)" stroke-width="1.25" stroke-miterlimit="10" fill="rgb(255, 255, 255)" d="M 24.84,19.2 C 24.73,19.2 24.62,19.21 24.51,19.22 23.39,19.39 22.53,20.35 22.53,21.52 22.53,22.81 23.57,23.85 24.84,23.85 26.12,23.85 27.15,22.81 27.15,21.52 27.15,20.24 26.12,19.2 24.84,19.2 Z M 31.77,18.82 C 32.03,20 32,20.24 32,21.6 L 32,34.26 C 32,35.63 32,36.31 31.8,36.92 L 31.77,37.04 C 31.48,37.84 30.85,38.48 30.05,38.77 29.33,39 28.65,39 27.29,39 L 22.85,39 C 21.5,39 20.82,39 20.21,38.8 L 20.09,38.77 C 19.29,38.48 18.67,37.84 18.38,37.04 18.14,36.31 18.14,35.63 18.14,34.26 L 18.14,21.6 C 18.14,20.24 18.14,19.55 18.35,18.94 18.55,18.32 22.6,12.14 25.07,12.22 27.53,12.31 31.51,17.64 31.77,18.82 Z M 31.77,18.82" />
    </g>
    <g id="_OLSKSharedFeatureTags-group3" transform="translate(-16.5, 25.64) rotate(-45)" >
        <path id="_OLSKSharedFeatureTags-bezier3" stroke="rgb(0, 0, 0)" stroke-width="1.25" stroke-miterlimit="10" fill="rgb(255, 255, 255)" d="M 24.84,19.2 C 24.73,19.2 24.62,19.21 24.51,19.22 23.39,19.39 22.53,20.35 22.53,21.52 22.53,22.81 23.57,23.85 24.84,23.85 26.12,23.85 27.15,22.81 27.15,21.52 27.15,20.24 26.12,19.2 24.84,19.2 Z M 31.77,18.82 C 32.03,20 32,20.24 32,21.6 L 32,34.26 C 32,35.63 32,36.31 31.8,36.92 L 31.77,37.04 C 31.48,37.84 30.85,38.48 30.05,38.77 29.33,39 28.65,39 27.29,39 L 22.85,39 C 21.5,39 20.82,39 20.21,38.8 L 20.09,38.77 C 19.29,38.48 18.67,37.84 18.38,37.04 18.14,36.31 18.14,35.63 18.14,34.26 L 18.14,21.6 C 18.14,20.24 18.14,19.55 18.35,18.94 18.55,18.32 22.6,12.14 25.07,12.22 27.53,12.31 31.51,17.64 31.77,18.82 Z M 31.77,18.82" />
    </g>
</svg>
