<?xml version="1.0" encoding="UTF-8"?>
<!DOCTYPE svg PUBLIC "-//W3C//DTD SVG 1.1//EN" "http://www.w3.org/Graphics/SVG/1.1/DTD/svg11.dtd">
<svg version="1.1" xmlns="http://www.w3.org/2000/svg" xmlns:xlink="http://www.w3.org/1999/xlink" width="50" height="50"  xml:space="preserve" id="_OLSKSharedFeatureEverywhere">
    <!-- Generated by PaintCode (www.paintcodeapp.com) -->
    <g id="_OLSKSharedFeatureEverywhere-desktop">
        <path id="_OLSKSharedFeatureEverywhere-rectangle4" stroke="rgb(0, 0, 0)" stroke-width="1.25" fill="none" d="M 8.03,9.5 L 40.97,9.5 C 41.41,9.5 41.63,9.5 41.83,9.57 L 41.87,9.57 C 42.13,9.67 42.33,9.87 42.43,10.13 42.5,10.37 42.5,10.59 42.5,11.03 L 42.5,33.5 6.5,33.5 6.5,11.03 C 6.5,10.59 6.5,10.37 6.57,10.17 L 6.57,10.13 C 6.67,9.87 6.87,9.67 7.13,9.57 7.37,9.5 7.59,9.5 8.03,9.5 Z M 8.03,9.5" />
        <rect id="_OLSKSharedFeatureEverywhere-rectangle5" stroke="rgb(0, 0, 0)" stroke-width="1.25" fill="none" x="9.5" y="12.5" width="30" height="18" />
        <rect id="_OLSKSharedFeatureEverywhere-rectangle6" stroke="rgb(0, 0, 0)" stroke-width="1.25" fill="none" x="2.5" y="33.5" width="40.5" height="3" rx="1.5" />
    </g>
    <g id="_OLSKSharedFeatureEverywhere-mobile">
        <rect id="_OLSKSharedFeatureEverywhere-rectangle" stroke="rgb(0, 0, 0)" stroke-width="1.25" fill="rgb(255, 255, 255)" x="35.5" y="22.5" width="10.5" height="18.5" rx="2" />
        <path id="_OLSKSharedFeatureEverywhere-bezier2" stroke="rgb(0, 0, 0)" stroke-width="1.25" stroke-miterlimit="10" fill="rgb(255, 255, 255)" d="M 46,26.05 L 46,37.45 46,37.5 35.5,37.5 35.5,37.45 35.5,26.05 35.5,26 46,26 46,26.05 Z M 46,26.05" />
    </g>
</svg>
